<?xml version="1.0" standalone="no"?>
<!DOCTYPE svg PUBLIC "-//W3C//DTD SVG 20010904//EN"
 "http://www.w3.org/TR/2001/REC-SVG-20010904/DTD/svg10.dtd">
<svg version="1.0" xmlns="http://www.w3.org/2000/svg"
 width="225.000000pt" height="225.000000pt" viewBox="0 0 225.000000 225.000000"
 preserveAspectRatio="xMidYMid meet">
<metadata>
Created by potrace 1.11, written by Peter Selinger 2001-2013
</metadata>
<g transform="translate(0.000000,225.000000) scale(0.100000,-0.100000)"
fill="#000000" stroke="none">
<path d="M2080 2244 c-14 -2 -65 -9 -115 -15 -492 -59 -1011 -311 -1299 -630
-234 -258 -469 -722 -483 -954 l-5 -80 67 120 c213 381 466 649 743 786 85 41
127 47 127 17 0 -9 -58 -90 -130 -180 -297 -372 -625 -829 -625 -871 0 -24
205 14 353 64 119 40 365 160 492 241 l100 63 -95 13 c-52 7 -103 17 -114 20
-10 5 50 15 145 25 157 17 166 19 204 49 67 53 185 160 185 168 0 4 -75 18
-167 31 -93 13 -154 25 -138 27 17 2 115 13 219 25 l190 22 73 90 c40 50 73
93 73 96 0 3 -77 17 -172 30 -195 27 -195 27 66 54 l176 19 45 76 c109 186
223 478 233 595 4 58 3 63 -23 83 -27 21 -59 25 -125 16z"/>
<path d="M894 1352 c-286 -190 -512 -481 -715 -923 -61 -132 -159 -371 -159
-387 0 -9 43 -32 59 -32 4 0 18 26 31 58 72 176 223 451 348 632 83 119 332
450 446 594 48 59 85 110 83 112 -2 3 -44 -22 -93 -54z"/>
</g>
</svg>
